<?xml version="1.0" encoding="UTF-8"?>
<!--Generator: Apple Native CoreSVG 341-->
<!DOCTYPE svg
PUBLIC "-//W3C//DTD SVG 1.1//EN"
       "http://www.w3.org/Graphics/SVG/1.1/DTD/svg11.dtd">
<svg version="1.1" xmlns="http://www.w3.org/2000/svg" xmlns:xlink="http://www.w3.org/1999/xlink" viewBox="0 0 175.977 284.668">
 <g>
  <rect height="284.668" opacity="0" width="175.977" x="0" y="0"/>
  <path d="M87.9883 173.926C112.793 173.926 129.199 155.371 129.199 129.102L129.199 44.8242C129.199 18.6523 112.793 0 87.9883 0C63.2812 0 46.7773 18.6523 46.7773 44.8242L46.7773 129.102C46.7773 155.371 63.2812 173.926 87.9883 173.926ZM87.9883 217.969C140.625 217.969 175.977 182.715 175.977 131.934L175.977 106.934C175.977 102.441 172.363 98.8281 167.871 98.8281C163.281 98.8281 159.668 102.441 159.668 106.934L159.668 131.348C159.668 173.926 131.445 202.734 87.9883 202.734C44.5312 202.734 16.3086 173.926 16.3086 131.348L16.3086 106.934C16.3086 102.441 12.6953 98.8281 8.20312 98.8281C3.61328 98.8281 0 102.441 0 106.934L0 131.934C0 182.715 35.4492 217.969 87.9883 217.969ZM31.7383 266.602L144.336 266.602C148.828 266.602 152.441 262.891 152.441 258.398C152.441 253.906 148.828 250.293 144.336 250.293L31.7383 250.293C27.1484 250.293 23.5352 253.906 23.5352 258.398C23.5352 262.891 27.1484 266.602 31.7383 266.602ZM87.9883 262.891C92.5781 262.891 96.1914 259.277 96.1914 254.785L96.1914 214.062C96.1914 209.57 92.5781 205.859 87.9883 205.859C83.4961 205.859 79.8828 209.57 79.8828 214.062L79.8828 254.785C79.8828 259.277 83.4961 262.891 87.9883 262.891Z" fill="white" fill-opacity="0.85"/>
 </g>
</svg>
